<?xml version="1.0" encoding="UTF-8" standalone="no"?><!-- Generator: Gravit.io --><svg xmlns="http://www.w3.org/2000/svg" xmlns:xlink="http://www.w3.org/1999/xlink" style="isolation:isolate" viewBox="300.027 1155 940 640" width="940pt" height="640pt"><g><rect x="300.027" y="1155" width="940" height="640" transform="matrix(1,0,0,1,0,0)" fill="rgb(0,77,69)"/><defs><filter id="oMng2JgvgHVHpVNdk7pwWZqEj8bClArk" x="-200%" y="-200%" width="400%" height="400%" filterUnits="objectBoundingBox" color-interpolation-filters="sRGB"><feGaussianBlur xmlns="http://www.w3.org/2000/svg" in="SourceGraphic" stdDeviation="15.027631719936599"/><feOffset xmlns="http://www.w3.org/2000/svg" dx="15" dy="20" result="pf_100_offsetBlur"/><feFlood xmlns="http://www.w3.org/2000/svg" flood-color="#00443D" flood-opacity="0.8"/><feComposite xmlns="http://www.w3.org/2000/svg" in2="pf_100_offsetBlur" operator="in" result="pf_100_dropShadow"/><feBlend xmlns="http://www.w3.org/2000/svg" in="SourceGraphic" in2="pf_100_dropShadow" mode="normal"/></filter></defs><g filter="url(#oMng2JgvgHVHpVNdk7pwWZqEj8bClArk)"><linearGradient id="_lgradient_0" x1="0" y1="0.5" x2="1" y2="0.5" gradientTransform="matrix(610.916,0,0,86.71,464.569,1638.29)" gradientUnits="userSpaceOnUse"><stop offset="0%" stop-opacity="1" style="stop-color:rgb(0,118,244)"/><stop offset="98.33333333333333%" stop-opacity="1" style="stop-color:rgb(0,140,255)"/></linearGradient><path d=" M 508.625 1638.29 L 1031.429 1638.29 C 1055.744 1638.29 1075.485 1657.717 1075.485 1681.645 L 1075.485 1681.645 C 1075.485 1705.573 1055.744 1725 1031.429 1725 L 508.625 1725 C 484.31 1725 464.569 1705.573 464.569 1681.645 L 464.569 1681.645 C 464.569 1657.717 484.31 1638.29 508.625 1638.29 Z " fill="url(#_lgradient_0)"/></g><path d=" M 941.985 1538.175 L 941.985 1538.175 L 941.985 1538.175 Q 941.985 1556.466 934.378 1565.484 L 934.378 1565.484 L 934.378 1565.484 Q 926.771 1574.502 911.469 1574.502 L 911.469 1574.502 L 911.469 1574.502 Q 905.655 1574.502 903.119 1573.825 L 903.119 1573.825 L 903.119 1565.484 L 903.119 1565.484 Q 907.01 1566.542 910.945 1566.542 L 910.945 1566.542 L 910.945 1566.542 Q 921.35 1566.542 926.465 1561.123 L 926.465 1561.123 L 926.465 1561.123 Q 931.58 1555.704 932.061 1544.103 L 932.061 1544.103 L 931.536 1544.103 L 931.536 1544.103 Q 928.957 1547.913 925.306 1549.607 L 925.306 1549.607 L 925.306 1549.607 Q 921.656 1551.3 916.759 1551.3 L 916.759 1551.3 L 916.759 1551.3 Q 908.278 1551.3 903.425 1546.177 L 903.425 1546.177 L 903.425 1546.177 Q 898.572 1541.054 898.572 1532.121 L 898.572 1532.121 L 898.572 1532.121 Q 898.572 1522.425 904.19 1516.688 L 904.19 1516.688 L 904.19 1516.688 Q 909.808 1510.951 919.514 1510.951 L 919.514 1510.951 L 919.514 1510.951 Q 926.334 1510.951 931.405 1514.169 L 931.405 1514.169 L 931.405 1514.169 Q 936.477 1517.387 939.231 1523.505 L 939.231 1523.505 L 939.231 1523.505 Q 941.985 1529.623 941.985 1538.175 Z  M 919.689 1519.207 L 919.689 1519.207 L 919.689 1519.207 Q 914.355 1519.207 911.513 1522.573 L 911.513 1522.573 L 911.513 1522.573 Q 908.671 1525.939 908.671 1532.036 L 908.671 1532.036 L 908.671 1532.036 Q 908.671 1537.328 911.316 1540.356 L 911.316 1540.356 L 911.316 1540.356 Q 913.961 1543.383 919.339 1543.383 L 919.339 1543.383 L 919.339 1543.383 Q 924.541 1543.383 928.083 1540.377 L 928.083 1540.377 L 928.083 1540.377 Q 931.624 1537.371 931.624 1533.349 L 931.624 1533.349 L 931.624 1533.349 Q 931.624 1529.58 930.116 1526.299 L 930.116 1526.299 L 930.116 1526.299 Q 928.607 1523.018 925.897 1521.113 L 925.897 1521.113 L 925.897 1521.113 Q 923.186 1519.207 919.689 1519.207 Z  M 980.021 1511.756 L 980.021 1573.655 L 969.747 1573.655 L 969.747 1533.687 L 969.747 1533.687 Q 969.747 1526.532 970.097 1522.341 L 970.097 1522.341 L 970.097 1522.341 Q 969.091 1523.357 967.627 1524.585 L 967.627 1524.585 L 967.627 1524.585 Q 966.162 1525.812 957.812 1532.375 L 957.812 1532.375 L 952.653 1526.066 L 971.452 1511.756 L 980.021 1511.756 Z  M 1031.129 1511.756 L 1031.129 1573.655 L 1020.855 1573.655 L 1020.855 1533.687 L 1020.855 1533.687 Q 1020.855 1526.532 1021.204 1522.341 L 1021.204 1522.341 L 1021.204 1522.341 Q 1020.199 1523.357 1018.734 1524.585 L 1018.734 1524.585 L 1018.734 1524.585 Q 1017.27 1525.812 1008.919 1532.375 L 1008.919 1532.375 L 1003.76 1526.066 L 1022.56 1511.756 L 1031.129 1511.756 Z  M 765.404 1538.175 L 765.404 1538.175 L 765.404 1538.175 Q 765.404 1556.466 757.797 1565.484 L 757.797 1565.484 L 757.797 1565.484 Q 750.19 1574.502 734.888 1574.502 L 734.888 1574.502 L 734.888 1574.502 Q 729.073 1574.502 726.538 1573.825 L 726.538 1573.825 L 726.538 1565.484 L 726.538 1565.484 Q 730.429 1566.542 734.363 1566.542 L 734.363 1566.542 L 734.363 1566.542 Q 744.768 1566.542 749.884 1561.123 L 749.884 1561.123 L 749.884 1561.123 Q 754.999 1555.704 755.48 1544.103 L 755.48 1544.103 L 754.955 1544.103 L 754.955 1544.103 Q 752.376 1547.913 748.725 1549.607 L 748.725 1549.607 L 748.725 1549.607 Q 745.074 1551.3 740.178 1551.3 L 740.178 1551.3 L 740.178 1551.3 Q 731.696 1551.3 726.844 1546.177 L 726.844 1546.177 L 726.844 1546.177 Q 721.991 1541.054 721.991 1532.121 L 721.991 1532.121 L 721.991 1532.121 Q 721.991 1522.425 727.609 1516.688 L 727.609 1516.688 L 727.609 1516.688 Q 733.227 1510.951 742.932 1510.951 L 742.932 1510.951 L 742.932 1510.951 Q 749.752 1510.951 754.824 1514.169 L 754.824 1514.169 L 754.824 1514.169 Q 759.895 1517.387 762.65 1523.505 L 762.65 1523.505 L 762.65 1523.505 Q 765.404 1529.623 765.404 1538.175 Z  M 743.107 1519.207 L 743.107 1519.207 L 743.107 1519.207 Q 737.773 1519.207 734.932 1522.573 L 734.932 1522.573 L 734.932 1522.573 Q 732.09 1525.939 732.09 1532.036 L 732.09 1532.036 L 732.09 1532.036 Q 732.09 1537.328 734.735 1540.356 L 734.735 1540.356 L 734.735 1540.356 Q 737.38 1543.383 742.757 1543.383 L 742.757 1543.383 L 742.757 1543.383 Q 747.96 1543.383 751.501 1540.377 L 751.501 1540.377 L 751.501 1540.377 Q 755.042 1537.371 755.042 1533.349 L 755.042 1533.349 L 755.042 1533.349 Q 755.042 1529.58 753.534 1526.299 L 753.534 1526.299 L 753.534 1526.299 Q 752.026 1523.018 749.315 1521.113 L 749.315 1521.113 L 749.315 1521.113 Q 746.605 1519.207 743.107 1519.207 Z  M 803.439 1511.756 L 803.439 1573.655 L 793.165 1573.655 L 793.165 1533.687 L 793.165 1533.687 Q 793.165 1526.532 793.515 1522.341 L 793.515 1522.341 L 793.515 1522.341 Q 792.51 1523.357 791.045 1524.585 L 791.045 1524.585 L 791.045 1524.585 Q 789.58 1525.812 781.23 1532.375 L 781.23 1532.375 L 776.071 1526.066 L 794.87 1511.756 L 803.439 1511.756 Z  M 854.547 1511.756 L 854.547 1573.655 L 844.273 1573.655 L 844.273 1533.687 L 844.273 1533.687 Q 844.273 1526.532 844.623 1522.341 L 844.623 1522.341 L 844.623 1522.341 Q 843.617 1523.357 842.153 1524.585 L 842.153 1524.585 L 842.153 1524.585 Q 840.688 1525.812 832.338 1532.375 L 832.338 1532.375 L 827.179 1526.066 L 845.978 1511.756 L 854.547 1511.756 Z  M 516.074 1510.951 L 516.074 1510.951 L 516.074 1510.951 Q 525.167 1510.951 530.457 1514.995 L 530.457 1514.995 L 530.457 1514.995 Q 535.747 1519.038 535.747 1525.812 L 535.747 1525.812 L 535.747 1525.812 Q 535.747 1535.339 523.943 1540.97 L 523.943 1540.97 L 523.943 1540.97 Q 531.463 1544.611 534.633 1548.633 L 534.633 1548.633 L 534.633 1548.633 Q 537.802 1552.655 537.802 1557.609 L 537.802 1557.609 L 537.802 1557.609 Q 537.802 1565.272 531.988 1569.887 L 531.988 1569.887 L 531.988 1569.887 Q 526.173 1574.502 516.249 1574.502 L 516.249 1574.502 L 516.249 1574.502 Q 505.843 1574.502 500.116 1570.183 L 500.116 1570.183 L 500.116 1570.183 Q 494.389 1565.865 494.389 1557.947 L 494.389 1557.947 L 494.389 1557.947 Q 494.389 1552.782 497.384 1548.654 L 497.384 1548.654 L 497.384 1548.654 Q 500.379 1544.526 507.199 1541.308 L 507.199 1541.308 L 507.199 1541.308 Q 501.34 1537.921 498.848 1534.153 L 498.848 1534.153 L 498.848 1534.153 Q 496.356 1530.385 496.356 1525.685 L 496.356 1525.685 L 496.356 1525.685 Q 496.356 1518.953 501.821 1514.952 L 501.821 1514.952 L 501.821 1514.952 Q 507.286 1510.951 516.074 1510.951 Z  M 504.226 1557.609 L 504.226 1557.609 L 504.226 1557.609 Q 504.226 1562.012 507.417 1564.446 L 507.417 1564.446 L 507.417 1564.446 Q 510.609 1566.881 516.074 1566.881 L 516.074 1566.881 L 516.074 1566.881 Q 521.714 1566.881 524.839 1564.362 L 524.839 1564.362 L 524.839 1564.362 Q 527.965 1561.843 527.965 1557.524 L 527.965 1557.524 L 527.965 1557.524 Q 527.965 1554.095 525.08 1551.258 L 525.08 1551.258 L 525.08 1551.258 Q 522.194 1548.421 516.336 1546.008 L 516.336 1546.008 L 515.068 1545.458 L 515.068 1545.458 Q 509.297 1547.913 506.762 1550.856 L 506.762 1550.856 L 506.762 1550.856 Q 504.226 1553.798 504.226 1557.609 Z  M 515.986 1518.615 L 515.986 1518.615 L 515.986 1518.615 Q 511.614 1518.615 508.948 1520.711 L 508.948 1520.711 L 508.948 1520.711 Q 506.281 1522.806 506.281 1526.405 L 506.281 1526.405 L 506.281 1526.405 Q 506.281 1528.607 507.242 1530.343 L 507.242 1530.343 L 507.242 1530.343 Q 508.204 1532.078 510.041 1533.497 L 510.041 1533.497 L 510.041 1533.497 Q 511.877 1534.915 516.249 1536.905 L 516.249 1536.905 L 516.249 1536.905 Q 521.495 1534.661 523.659 1532.184 L 523.659 1532.184 L 523.659 1532.184 Q 525.823 1529.707 525.823 1526.405 L 525.823 1526.405 L 525.823 1526.405 Q 525.823 1522.806 523.134 1520.711 L 523.134 1520.711 L 523.134 1520.711 Q 520.446 1518.615 515.986 1518.615 Z  M 588.91 1542.706 L 588.91 1542.706 L 588.91 1542.706 Q 588.91 1558.837 583.554 1566.669 L 583.554 1566.669 L 583.554 1566.669 Q 578.199 1574.502 567.181 1574.502 L 567.181 1574.502 L 567.181 1574.502 Q 556.514 1574.502 551.005 1566.415 L 551.005 1566.415 L 551.005 1566.415 Q 545.497 1558.329 545.497 1542.706 L 545.497 1542.706 L 545.497 1542.706 Q 545.497 1526.32 550.852 1518.551 L 550.852 1518.551 L 550.852 1518.551 Q 556.208 1510.782 567.181 1510.782 L 567.181 1510.782 L 567.181 1510.782 Q 577.893 1510.782 583.401 1518.911 L 583.401 1518.911 L 583.401 1518.911 Q 588.91 1527.04 588.91 1542.706 Z  M 555.902 1542.706 L 555.902 1542.706 L 555.902 1542.706 Q 555.902 1555.365 558.591 1560.784 L 558.591 1560.784 L 558.591 1560.784 Q 561.279 1566.204 567.181 1566.204 L 567.181 1566.204 L 567.181 1566.204 Q 573.083 1566.204 575.816 1560.699 L 575.816 1560.699 L 575.816 1560.699 Q 578.548 1555.195 578.548 1542.706 L 578.548 1542.706 L 578.548 1542.706 Q 578.548 1530.258 575.816 1524.69 L 575.816 1524.69 L 575.816 1524.69 Q 573.083 1519.123 567.181 1519.123 L 567.181 1519.123 L 567.181 1519.123 Q 561.279 1519.123 558.591 1524.585 L 558.591 1524.585 L 558.591 1524.585 Q 555.902 1530.046 555.902 1542.706 Z  M 618.376 1535 L 618.376 1535 L 618.376 1535 Q 628.038 1535 633.678 1539.953 L 633.678 1539.953 L 633.678 1539.953 Q 639.318 1544.907 639.318 1553.46 L 639.318 1553.46 L 639.318 1553.46 Q 639.318 1563.367 632.913 1568.934 L 632.913 1568.934 L 632.913 1568.934 Q 626.508 1574.502 614.704 1574.502 L 614.704 1574.502 L 614.704 1574.502 Q 603.993 1574.502 597.872 1571.157 L 597.872 1571.157 L 597.872 1562.139 L 597.872 1562.139 Q 601.413 1564.087 606.004 1565.145 L 606.004 1565.145 L 606.004 1565.145 Q 610.594 1566.204 614.529 1566.204 L 614.529 1566.204 L 614.529 1566.204 Q 621.481 1566.204 625.109 1563.197 L 625.109 1563.197 L 625.109 1563.197 Q 628.738 1560.191 628.738 1554.391 L 628.738 1554.391 L 628.738 1554.391 Q 628.738 1543.298 614.136 1543.298 L 614.136 1543.298 L 614.136 1543.298 Q 612.081 1543.298 609.064 1543.7 L 609.064 1543.7 L 609.064 1543.7 Q 606.048 1544.103 603.774 1544.611 L 603.774 1544.611 L 599.184 1541.986 L 601.632 1511.756 L 634.859 1511.756 L 634.859 1520.605 L 610.682 1520.605 L 609.239 1535.931 L 609.239 1535.931 Q 610.769 1535.677 612.977 1535.339 L 612.977 1535.339 L 612.977 1535.339 Q 615.185 1535 618.376 1535 Z  M 693.398 1551.893 L 693.398 1560.149 L 684.786 1560.149 L 684.786 1573.655 L 674.774 1573.655 L 674.774 1560.149 L 645.57 1560.149 L 645.57 1552.486 L 674.774 1511.586 L 684.786 1511.586 L 684.786 1551.893 L 693.398 1551.893 Z  M 655.144 1551.893 L 674.774 1551.893 L 674.774 1536.355 L 674.774 1536.355 Q 674.774 1528.056 675.211 1522.764 L 675.211 1522.764 L 674.862 1522.764 L 674.862 1522.764 Q 673.637 1525.558 671.014 1529.538 L 671.014 1529.538 L 655.144 1551.893 Z " fill="rgb(255,255,255)"/><path d=" M 791.215 1429.231 L 791.215 1453.038 L 787.953 1453.038 L 774.518 1433.058 L 774.383 1433.058 L 774.383 1433.058 Q 774.652 1436.575 774.652 1439.506 L 774.652 1439.506 L 774.652 1453.038 L 772.012 1453.038 L 772.012 1429.231 L 775.241 1429.231 L 788.642 1449.13 L 788.777 1449.13 L 788.777 1449.13 Q 788.743 1448.691 788.625 1446.305 L 788.625 1446.305 L 788.625 1446.305 Q 788.508 1443.919 788.541 1442.893 L 788.541 1442.893 L 788.541 1429.231 L 791.215 1429.231 Z  M 797.352 1435.191 L 800.177 1435.191 L 800.177 1446.769 L 800.177 1446.769 Q 800.177 1448.951 801.203 1450.026 L 801.203 1450.026 L 801.203 1450.026 Q 802.229 1451.101 804.415 1451.101 L 804.415 1451.101 L 804.415 1451.101 Q 807.307 1451.101 808.644 1449.57 L 808.644 1449.57 L 808.644 1449.57 Q 809.98 1448.039 809.98 1444.571 L 809.98 1444.571 L 809.98 1435.191 L 812.772 1435.191 L 812.772 1453.038 L 810.468 1453.038 L 810.065 1450.645 L 809.913 1450.645 L 809.913 1450.645 Q 809.056 1451.964 807.534 1452.664 L 807.534 1452.664 L 807.534 1452.664 Q 806.012 1453.364 804.062 1453.364 L 804.062 1453.364 L 804.062 1453.364 Q 800.699 1453.364 799.025 1451.817 L 799.025 1451.817 L 799.025 1451.817 Q 797.352 1450.27 797.352 1446.867 L 797.352 1446.867 L 797.352 1435.191 Z  M 844.973 1453.038 L 842.181 1453.038 L 842.181 1441.428 L 842.181 1441.428 Q 842.181 1439.295 841.24 1438.228 L 841.24 1438.228 L 841.24 1438.228 Q 840.298 1437.161 838.314 1437.161 L 838.314 1437.161 L 838.314 1437.161 Q 835.707 1437.161 834.463 1438.611 L 834.463 1438.611 L 834.463 1438.611 Q 833.219 1440.06 833.219 1443.073 L 833.219 1443.073 L 833.219 1453.038 L 830.428 1453.038 L 830.428 1441.428 L 830.428 1441.428 Q 830.428 1439.295 829.486 1438.228 L 829.486 1438.228 L 829.486 1438.228 Q 828.544 1437.161 826.543 1437.161 L 826.543 1437.161 L 826.543 1437.161 Q 823.92 1437.161 822.701 1438.684 L 822.701 1438.684 L 822.701 1438.684 Q 821.482 1440.207 821.482 1443.675 L 821.482 1443.675 L 821.482 1453.038 L 818.691 1453.038 L 818.691 1435.191 L 820.961 1435.191 L 821.415 1437.634 L 821.549 1437.634 L 821.549 1437.634 Q 822.34 1436.331 823.777 1435.598 L 823.777 1435.598 L 823.777 1435.598 Q 825.215 1434.865 826.997 1434.865 L 826.997 1434.865 L 826.997 1434.865 Q 831.319 1434.865 832.647 1437.894 L 832.647 1437.894 L 832.782 1437.894 L 832.782 1437.894 Q 833.606 1436.494 835.169 1435.68 L 835.169 1435.68 L 835.169 1435.68 Q 836.733 1434.865 838.734 1434.865 L 838.734 1434.865 L 838.734 1434.865 Q 841.862 1434.865 843.417 1436.421 L 843.417 1436.421 L 843.417 1436.421 Q 844.973 1437.976 844.973 1441.395 L 844.973 1441.395 L 844.973 1453.038 Z  M 859.299 1434.898 L 859.299 1434.898 L 859.299 1434.898 Q 862.931 1434.898 864.94 1437.3 L 864.94 1437.3 L 864.94 1437.3 Q 866.95 1439.702 866.95 1444.098 L 866.95 1444.098 L 866.95 1444.098 Q 866.95 1448.495 864.924 1450.93 L 864.924 1450.93 L 864.924 1450.93 Q 862.897 1453.364 859.299 1453.364 L 859.299 1453.364 L 859.299 1453.364 Q 857.5 1453.364 856.012 1452.721 L 856.012 1452.721 L 856.012 1452.721 Q 854.524 1452.078 853.515 1450.742 L 853.515 1450.742 L 853.313 1450.742 L 852.724 1453.038 L 850.723 1453.038 L 850.723 1427.7 L 853.515 1427.7 L 853.515 1433.856 L 853.515 1433.856 Q 853.515 1435.924 853.38 1437.569 L 853.38 1437.569 L 853.515 1437.569 L 853.515 1437.569 Q 855.465 1434.898 859.299 1434.898 Z  M 858.895 1437.161 L 858.895 1437.161 L 858.895 1437.161 Q 856.037 1437.161 854.776 1438.749 L 854.776 1438.749 L 854.776 1438.749 Q 853.515 1440.337 853.515 1444.098 L 853.515 1444.098 L 853.515 1444.098 Q 853.515 1447.86 854.809 1449.48 L 854.809 1449.48 L 854.809 1449.48 Q 856.104 1451.101 858.963 1451.101 L 858.963 1451.101 L 858.963 1451.101 Q 861.535 1451.101 862.797 1449.285 L 862.797 1449.285 L 862.797 1449.285 Q 864.058 1447.469 864.058 1444.066 L 864.058 1444.066 L 864.058 1444.066 Q 864.058 1440.581 862.797 1438.871 L 862.797 1438.871 L 862.797 1438.871 Q 861.535 1437.161 858.895 1437.161 Z  M 879.612 1453.364 L 879.612 1453.364 L 879.612 1453.364 Q 875.526 1453.364 873.163 1450.954 L 873.163 1450.954 L 873.163 1450.954 Q 870.8 1448.544 870.8 1444.261 L 870.8 1444.261 L 870.8 1444.261 Q 870.8 1439.946 872.995 1437.406 L 872.995 1437.406 L 872.995 1437.406 Q 875.189 1434.865 878.889 1434.865 L 878.889 1434.865 L 878.889 1434.865 Q 882.352 1434.865 884.37 1437.072 L 884.37 1437.072 L 884.37 1437.072 Q 886.388 1439.278 886.388 1442.893 L 886.388 1442.893 L 886.388 1444.603 L 873.693 1444.603 L 873.693 1444.603 Q 873.777 1447.746 875.332 1449.375 L 875.332 1449.375 L 875.332 1449.375 Q 876.888 1451.003 879.712 1451.003 L 879.712 1451.003 L 879.712 1451.003 Q 882.689 1451.003 885.598 1449.798 L 885.598 1449.798 L 885.598 1452.208 L 885.598 1452.208 Q 884.118 1452.827 882.798 1453.095 L 882.798 1453.095 L 882.798 1453.095 Q 881.478 1453.364 879.612 1453.364 Z  M 878.855 1437.129 L 878.855 1437.129 L 878.855 1437.129 Q 876.635 1437.129 875.315 1438.529 L 875.315 1438.529 L 875.315 1438.529 Q 873.995 1439.93 873.76 1442.405 L 873.76 1442.405 L 883.395 1442.405 L 883.395 1442.405 Q 883.395 1439.848 882.218 1438.489 L 882.218 1438.489 L 882.218 1438.489 Q 881.041 1437.129 878.855 1437.129 Z  M 899.554 1434.865 L 899.554 1434.865 L 899.554 1434.865 Q 900.782 1434.865 901.757 1435.061 L 901.757 1435.061 L 901.37 1437.569 L 901.37 1437.569 Q 900.227 1437.324 899.352 1437.324 L 899.352 1437.324 L 899.352 1437.324 Q 897.116 1437.324 895.527 1439.083 L 895.527 1439.083 L 895.527 1439.083 Q 893.938 1440.842 893.938 1443.463 L 893.938 1443.463 L 893.938 1453.038 L 891.147 1453.038 L 891.147 1435.191 L 893.45 1435.191 L 893.77 1438.497 L 893.904 1438.497 L 893.904 1438.497 Q 894.93 1436.754 896.376 1435.81 L 896.376 1435.81 L 896.376 1435.81 Q 897.822 1434.865 899.554 1434.865 Z  M 904.8 1451.312 L 904.8 1451.312 L 904.8 1451.312 Q 904.8 1450.221 905.313 1449.66 L 905.313 1449.66 L 905.313 1449.66 Q 905.826 1449.098 906.785 1449.098 L 906.785 1449.098 L 906.785 1449.098 Q 907.76 1449.098 908.306 1449.66 L 908.306 1449.66 L 908.306 1449.66 Q 908.853 1450.221 908.853 1451.312 L 908.853 1451.312 L 908.853 1451.312 Q 908.853 1452.371 908.298 1452.941 L 908.298 1452.941 L 908.298 1452.941 Q 907.743 1453.511 906.785 1453.511 L 906.785 1453.511 L 906.785 1453.511 Q 905.927 1453.511 905.364 1452.998 L 905.364 1452.998 L 905.364 1452.998 Q 904.8 1452.485 904.8 1451.312 Z  M 904.8 1436.933 L 904.8 1436.933 L 904.8 1436.933 Q 904.8 1434.735 906.785 1434.735 L 906.785 1434.735 L 906.785 1434.735 Q 908.853 1434.735 908.853 1436.933 L 908.853 1436.933 L 908.853 1436.933 Q 908.853 1437.992 908.298 1438.562 L 908.298 1438.562 L 908.298 1438.562 Q 907.743 1439.132 906.785 1439.132 L 906.785 1439.132 L 906.785 1439.132 Q 905.927 1439.132 905.364 1438.619 L 905.364 1438.619 L 905.364 1438.619 Q 904.8 1438.106 904.8 1436.933 Z  M 649.313 1429.231 L 649.313 1453.038 L 646.454 1453.038 L 646.454 1441.835 L 633.507 1441.835 L 633.507 1453.038 L 630.648 1453.038 L 630.648 1429.231 L 633.507 1429.231 L 633.507 1439.36 L 646.454 1439.36 L 646.454 1429.231 L 649.313 1429.231 Z  M 663.421 1453.364 L 663.421 1453.364 L 663.421 1453.364 Q 659.335 1453.364 656.972 1450.954 L 656.972 1450.954 L 656.972 1450.954 Q 654.61 1448.544 654.61 1444.261 L 654.61 1444.261 L 654.61 1444.261 Q 654.61 1439.946 656.804 1437.406 L 656.804 1437.406 L 656.804 1437.406 Q 658.998 1434.865 662.698 1434.865 L 662.698 1434.865 L 662.698 1434.865 Q 666.161 1434.865 668.179 1437.072 L 668.179 1437.072 L 668.179 1437.072 Q 670.197 1439.278 670.197 1442.893 L 670.197 1442.893 L 670.197 1444.603 L 657.502 1444.603 L 657.502 1444.603 Q 657.586 1447.746 659.141 1449.375 L 659.141 1449.375 L 659.141 1449.375 Q 660.697 1451.003 663.521 1451.003 L 663.521 1451.003 L 663.521 1451.003 Q 666.498 1451.003 669.407 1449.798 L 669.407 1449.798 L 669.407 1452.208 L 669.407 1452.208 Q 667.927 1452.827 666.607 1453.095 L 666.607 1453.095 L 666.607 1453.095 Q 665.287 1453.364 663.421 1453.364 Z  M 662.664 1437.129 L 662.664 1437.129 L 662.664 1437.129 Q 660.444 1437.129 659.124 1438.529 L 659.124 1438.529 L 659.124 1438.529 Q 657.804 1439.93 657.569 1442.405 L 657.569 1442.405 L 667.204 1442.405 L 667.204 1442.405 Q 667.204 1439.848 666.027 1438.489 L 666.027 1438.489 L 666.027 1438.489 Q 664.85 1437.129 662.664 1437.129 Z  M 677.747 1427.7 L 677.747 1453.038 L 674.956 1453.038 L 674.956 1427.7 L 677.747 1427.7 Z  M 692.242 1453.364 L 692.242 1453.364 L 692.242 1453.364 Q 690.442 1453.364 688.954 1452.721 L 688.954 1452.721 L 688.954 1452.721 Q 687.466 1452.078 686.457 1450.742 L 686.457 1450.742 L 686.255 1450.742 L 686.255 1450.742 Q 686.457 1452.306 686.457 1453.706 L 686.457 1453.706 L 686.457 1461.05 L 683.666 1461.05 L 683.666 1435.191 L 685.936 1435.191 L 686.323 1437.634 L 686.457 1437.634 L 686.457 1437.634 Q 687.533 1436.168 688.963 1435.517 L 688.963 1435.517 L 688.963 1435.517 Q 690.392 1434.865 692.242 1434.865 L 692.242 1434.865 L 692.242 1434.865 Q 695.907 1434.865 697.9 1437.292 L 697.9 1437.292 L 697.9 1437.292 Q 699.892 1439.718 699.892 1444.098 L 699.892 1444.098 L 699.892 1444.098 Q 699.892 1448.495 697.866 1450.93 L 697.866 1450.93 L 697.866 1450.93 Q 695.84 1453.364 692.242 1453.364 Z  M 691.838 1437.161 L 691.838 1437.161 L 691.838 1437.161 Q 689.013 1437.161 687.752 1438.676 L 687.752 1438.676 L 687.752 1438.676 Q 686.491 1440.19 686.457 1443.496 L 686.457 1443.496 L 686.457 1444.098 L 686.457 1444.098 Q 686.457 1447.86 687.752 1449.48 L 687.752 1449.48 L 687.752 1449.48 Q 689.047 1451.101 691.905 1451.101 L 691.905 1451.101 L 691.905 1451.101 Q 694.293 1451.101 695.647 1449.228 L 695.647 1449.228 L 695.647 1449.228 Q 697 1447.355 697 1444.066 L 697 1444.066 L 697 1444.066 Q 697 1440.728 695.647 1438.945 L 695.647 1438.945 L 695.647 1438.945 Q 694.293 1437.161 691.838 1437.161 Z  M 707.56 1427.7 L 707.56 1453.038 L 704.769 1453.038 L 704.769 1427.7 L 707.56 1427.7 Z  M 716.27 1435.191 L 716.27 1453.038 L 713.479 1453.038 L 713.479 1435.191 L 716.27 1435.191 Z  M 713.244 1430.355 L 713.244 1430.355 L 713.244 1430.355 Q 713.244 1429.426 713.714 1428.995 L 713.714 1428.995 L 713.714 1428.995 Q 714.185 1428.563 714.891 1428.563 L 714.891 1428.563 L 714.891 1428.563 Q 715.564 1428.563 716.052 1429.003 L 716.052 1429.003 L 716.052 1429.003 Q 716.539 1429.443 716.539 1430.355 L 716.539 1430.355 L 716.539 1430.355 Q 716.539 1431.267 716.052 1431.714 L 716.052 1431.714 L 716.052 1431.714 Q 715.564 1432.162 714.891 1432.162 L 714.891 1432.162 L 714.891 1432.162 Q 714.185 1432.162 713.714 1431.714 L 713.714 1431.714 L 713.714 1431.714 Q 713.244 1431.267 713.244 1430.355 Z  M 737.592 1453.038 L 734.8 1453.038 L 734.8 1441.493 L 734.8 1441.493 Q 734.8 1439.311 733.775 1438.236 L 733.775 1438.236 L 733.775 1438.236 Q 732.749 1437.161 730.563 1437.161 L 730.563 1437.161 L 730.563 1437.161 Q 727.671 1437.161 726.326 1438.676 L 726.326 1438.676 L 726.326 1438.676 Q 724.98 1440.19 724.98 1443.675 L 724.98 1443.675 L 724.98 1453.038 L 722.189 1453.038 L 722.189 1435.191 L 724.459 1435.191 L 724.913 1437.634 L 725.048 1437.634 L 725.048 1437.634 Q 725.905 1436.315 727.452 1435.59 L 727.452 1435.59 L 727.452 1435.59 Q 728.999 1434.865 730.899 1434.865 L 730.899 1434.865 L 730.899 1434.865 Q 734.229 1434.865 735.91 1436.421 L 735.91 1436.421 L 735.91 1436.421 Q 737.592 1437.976 737.592 1441.395 L 737.592 1441.395 L 737.592 1453.038 Z  M 751.111 1453.364 L 751.111 1453.364 L 751.111 1453.364 Q 747.025 1453.364 744.662 1450.954 L 744.662 1450.954 L 744.662 1450.954 Q 742.3 1448.544 742.3 1444.261 L 742.3 1444.261 L 742.3 1444.261 Q 742.3 1439.946 744.494 1437.406 L 744.494 1437.406 L 744.494 1437.406 Q 746.689 1434.865 750.388 1434.865 L 750.388 1434.865 L 750.388 1434.865 Q 753.852 1434.865 755.87 1437.072 L 755.87 1437.072 L 755.87 1437.072 Q 757.887 1439.278 757.887 1442.893 L 757.887 1442.893 L 757.887 1444.603 L 745.192 1444.603 L 745.192 1444.603 Q 745.276 1447.746 746.832 1449.375 L 746.832 1449.375 L 746.832 1449.375 Q 748.387 1451.003 751.212 1451.003 L 751.212 1451.003 L 751.212 1451.003 Q 754.188 1451.003 757.097 1449.798 L 757.097 1449.798 L 757.097 1452.208 L 757.097 1452.208 Q 755.617 1452.827 754.297 1453.095 L 754.297 1453.095 L 754.297 1453.095 Q 752.977 1453.364 751.111 1453.364 Z  M 750.354 1437.129 L 750.354 1437.129 L 750.354 1437.129 Q 748.135 1437.129 746.815 1438.529 L 746.815 1438.529 L 746.815 1438.529 Q 745.495 1439.93 745.259 1442.405 L 745.259 1442.405 L 754.894 1442.405 L 754.894 1442.405 Q 754.894 1439.848 753.717 1438.489 L 753.717 1438.489 L 753.717 1438.489 Q 752.54 1437.129 750.354 1437.129 Z " fill="rgb(255,255,255)"/><path d=" M 760.048 1674.635 L 760.048 1674.635 L 760.048 1674.635 Q 757.106 1674.635 755.491 1676.776 L 755.491 1676.776 L 755.491 1676.776 Q 753.877 1678.917 753.877 1682.744 L 753.877 1682.744 L 753.877 1682.744 Q 753.877 1690.707 760.048 1690.707 L 760.048 1690.707 L 760.048 1690.707 Q 762.638 1690.707 766.32 1689.453 L 766.32 1689.453 L 766.32 1693.687 L 766.32 1693.687 Q 763.294 1694.909 759.561 1694.909 L 759.561 1694.909 L 759.561 1694.909 Q 754.197 1694.909 751.355 1691.758 L 751.355 1691.758 L 751.355 1691.758 Q 748.513 1688.607 748.513 1682.712 L 748.513 1682.712 L 748.513 1682.712 Q 748.513 1678.999 749.909 1676.206 L 749.909 1676.206 L 749.909 1676.206 Q 751.304 1673.413 753.919 1671.923 L 753.919 1671.923 L 753.919 1671.923 Q 756.534 1670.433 760.048 1670.433 L 760.048 1670.433 L 760.048 1670.433 Q 763.63 1670.433 767.245 1672.111 L 767.245 1672.111 L 765.564 1676.214 L 765.564 1676.214 Q 764.185 1675.579 762.789 1675.107 L 762.789 1675.107 L 762.789 1675.107 Q 761.393 1674.635 760.048 1674.635 Z  M 775.232 1685.447 L 775.232 1685.447 L 775.232 1685.447 Q 775.232 1688.151 776.149 1689.535 L 776.149 1689.535 L 776.149 1689.535 Q 777.065 1690.919 779.133 1690.919 L 779.133 1690.919 L 779.133 1690.919 Q 781.185 1690.919 782.084 1689.543 L 782.084 1689.543 L 782.084 1689.543 Q 782.984 1688.167 782.984 1685.447 L 782.984 1685.447 L 782.984 1685.447 Q 782.984 1682.744 782.076 1681.393 L 782.076 1681.393 L 782.076 1681.393 Q 781.168 1680.041 779.1 1680.041 L 779.1 1680.041 L 779.1 1680.041 Q 777.048 1680.041 776.14 1681.385 L 776.14 1681.385 L 776.14 1681.385 Q 775.232 1682.728 775.232 1685.447 Z  M 788.23 1685.447 L 788.23 1685.447 L 788.23 1685.447 Q 788.23 1689.893 785.809 1692.401 L 785.809 1692.401 L 785.809 1692.401 Q 783.387 1694.909 779.066 1694.909 L 779.066 1694.909 L 779.066 1694.909 Q 776.359 1694.909 774.291 1693.76 L 774.291 1693.76 L 774.291 1693.76 Q 772.222 1692.612 771.113 1690.463 L 771.113 1690.463 L 771.113 1690.463 Q 770.003 1688.313 770.003 1685.447 L 770.003 1685.447 L 770.003 1685.447 Q 770.003 1680.986 772.407 1678.51 L 772.407 1678.51 L 772.407 1678.51 Q 774.812 1676.035 779.167 1676.035 L 779.167 1676.035 L 779.167 1676.035 Q 781.874 1676.035 783.942 1677.175 L 783.942 1677.175 L 783.942 1677.175 Q 786.011 1678.315 787.12 1680.448 L 787.12 1680.448 L 787.12 1680.448 Q 788.23 1682.581 788.23 1685.447 Z  M 809.821 1682.712 L 809.821 1694.583 L 804.692 1694.583 L 804.692 1683.949 L 804.692 1683.949 Q 804.692 1681.979 803.969 1680.994 L 803.969 1680.994 L 803.969 1680.994 Q 803.246 1680.009 801.665 1680.009 L 801.665 1680.009 L 801.665 1680.009 Q 799.513 1680.009 798.555 1681.401 L 798.555 1681.401 L 798.555 1681.401 Q 797.596 1682.793 797.596 1686.017 L 797.596 1686.017 L 797.596 1694.583 L 792.468 1694.583 L 792.468 1676.377 L 796.386 1676.377 L 797.075 1678.706 L 797.361 1678.706 L 797.361 1678.706 Q 798.218 1677.387 799.723 1676.711 L 799.723 1676.711 L 799.723 1676.711 Q 801.228 1676.035 803.145 1676.035 L 803.145 1676.035 L 803.145 1676.035 Q 806.424 1676.035 808.122 1677.753 L 808.122 1677.753 L 808.122 1677.753 Q 809.821 1679.471 809.821 1682.712 L 809.821 1682.712 Z  M 823.021 1690.951 L 823.021 1690.951 L 823.021 1690.951 Q 824.366 1690.951 826.249 1690.382 L 826.249 1690.382 L 826.249 1694.078 L 826.249 1694.078 Q 824.332 1694.909 821.541 1694.909 L 821.541 1694.909 L 821.541 1694.909 Q 818.464 1694.909 817.06 1693.402 L 817.06 1693.402 L 817.06 1693.402 Q 815.656 1691.896 815.656 1688.883 L 815.656 1688.883 L 815.656 1680.106 L 813.201 1680.106 L 813.201 1678.006 L 816.025 1676.345 L 817.505 1672.502 L 820.784 1672.502 L 820.784 1676.377 L 826.047 1676.377 L 826.047 1680.106 L 820.784 1680.106 L 820.784 1688.883 L 820.784 1688.883 Q 820.784 1689.942 821.398 1690.447 L 821.398 1690.447 L 821.398 1690.447 Q 822.012 1690.951 823.021 1690.951 Z  M 845.57 1694.583 L 841.988 1694.583 L 840.996 1692.108 L 840.861 1692.108 L 840.861 1692.108 Q 839.567 1693.687 838.196 1694.298 L 838.196 1694.298 L 838.196 1694.298 Q 836.826 1694.909 834.623 1694.909 L 834.623 1694.909 L 834.623 1694.909 Q 831.916 1694.909 830.36 1693.41 L 830.36 1693.41 L 830.36 1693.41 Q 828.805 1691.912 828.805 1689.144 L 828.805 1689.144 L 828.805 1689.144 Q 828.805 1686.245 830.898 1684.869 L 830.898 1684.869 L 830.898 1684.869 Q 832.992 1683.493 837.212 1683.347 L 837.212 1683.347 L 840.475 1683.249 L 840.475 1682.451 L 840.475 1682.451 Q 840.475 1679.683 837.549 1679.683 L 837.549 1679.683 L 837.549 1679.683 Q 835.296 1679.683 832.252 1681.002 L 832.252 1681.002 L 830.554 1677.647 L 830.554 1677.647 Q 833.799 1676.003 837.751 1676.003 L 837.751 1676.003 L 837.751 1676.003 Q 841.534 1676.003 843.552 1677.598 L 843.552 1677.598 L 843.552 1677.598 Q 845.57 1679.194 845.57 1682.451 L 845.57 1682.451 L 845.57 1694.583 Z  M 840.475 1687.646 L 840.475 1686.148 L 838.49 1686.213 L 838.49 1686.213 Q 836.254 1686.278 835.161 1686.994 L 835.161 1686.994 L 835.161 1686.994 Q 834.068 1687.711 834.068 1689.177 L 834.068 1689.177 L 834.068 1689.177 Q 834.068 1691.277 836.557 1691.277 L 836.557 1691.277 L 836.557 1691.277 Q 838.339 1691.277 839.407 1690.284 L 839.407 1690.284 L 839.407 1690.284 Q 840.475 1689.29 840.475 1687.646 L 840.475 1687.646 Z  M 858.483 1694.909 L 858.483 1694.909 L 858.483 1694.909 Q 849.706 1694.909 849.706 1685.578 L 849.706 1685.578 L 849.706 1685.578 Q 849.706 1680.937 852.094 1678.486 L 852.094 1678.486 L 852.094 1678.486 Q 854.481 1676.035 858.937 1676.035 L 858.937 1676.035 L 858.937 1676.035 Q 862.2 1676.035 864.789 1677.273 L 864.789 1677.273 L 863.276 1681.116 L 863.276 1681.116 Q 862.065 1680.644 861.023 1680.342 L 861.023 1680.342 L 861.023 1680.342 Q 859.98 1680.041 858.937 1680.041 L 858.937 1680.041 L 858.937 1680.041 Q 854.935 1680.041 854.935 1685.545 L 854.935 1685.545 L 854.935 1685.545 Q 854.935 1690.886 858.937 1690.886 L 858.937 1690.886 L 858.937 1690.886 Q 860.417 1690.886 861.678 1690.504 L 861.678 1690.504 L 861.678 1690.504 Q 862.939 1690.121 864.201 1689.307 L 864.201 1689.307 L 864.201 1693.557 L 864.201 1693.557 Q 862.956 1694.322 861.687 1694.615 L 861.687 1694.615 L 861.687 1694.615 Q 860.417 1694.909 858.483 1694.909 Z  M 876.476 1690.951 L 876.476 1690.951 L 876.476 1690.951 Q 877.821 1690.951 879.704 1690.382 L 879.704 1690.382 L 879.704 1694.078 L 879.704 1694.078 Q 877.787 1694.909 874.996 1694.909 L 874.996 1694.909 L 874.996 1694.909 Q 871.919 1694.909 870.515 1693.402 L 870.515 1693.402 L 870.515 1693.402 Q 869.111 1691.896 869.111 1688.883 L 869.111 1688.883 L 869.111 1680.106 L 866.656 1680.106 L 866.656 1678.006 L 869.481 1676.345 L 870.96 1672.502 L 874.239 1672.502 L 874.239 1676.377 L 879.502 1676.377 L 879.502 1680.106 L 874.239 1680.106 L 874.239 1688.883 L 874.239 1688.883 Q 874.239 1689.942 874.853 1690.447 L 874.853 1690.447 L 874.853 1690.447 Q 875.467 1690.951 876.476 1690.951 Z  M 675.469 1687.971 L 675.469 1687.971 L 675.469 1687.971 Q 675.469 1691.196 673.072 1693.052 L 673.072 1693.052 L 673.072 1693.052 Q 670.676 1694.909 666.405 1694.909 L 666.405 1694.909 L 666.405 1694.909 Q 662.471 1694.909 659.444 1693.476 L 659.444 1693.476 L 659.444 1688.786 L 659.444 1688.786 Q 661.932 1689.86 663.656 1690.3 L 663.656 1690.3 L 663.656 1690.3 Q 665.38 1690.74 666.809 1690.74 L 666.809 1690.74 L 666.809 1690.74 Q 668.524 1690.74 669.44 1690.105 L 669.44 1690.105 L 669.44 1690.105 Q 670.357 1689.47 670.357 1688.216 L 670.357 1688.216 L 670.357 1688.216 Q 670.357 1687.516 669.953 1686.97 L 669.953 1686.97 L 669.953 1686.97 Q 669.55 1686.424 668.768 1685.92 L 668.768 1685.92 L 668.768 1685.92 Q 667.986 1685.415 665.581 1684.308 L 665.581 1684.308 L 665.581 1684.308 Q 663.328 1683.282 662.201 1682.337 L 662.201 1682.337 L 662.201 1682.337 Q 661.075 1681.393 660.402 1680.139 L 660.402 1680.139 L 660.402 1680.139 Q 659.73 1678.885 659.73 1677.208 L 659.73 1677.208 L 659.73 1677.208 Q 659.73 1674.049 661.941 1672.241 L 661.941 1672.241 L 661.941 1672.241 Q 664.152 1670.433 668.053 1670.433 L 668.053 1670.433 L 668.053 1670.433 Q 669.97 1670.433 671.71 1670.873 L 671.71 1670.873 L 671.71 1670.873 Q 673.451 1671.313 675.351 1672.111 L 675.351 1672.111 L 673.669 1676.035 L 673.669 1676.035 Q 671.702 1675.254 670.416 1674.944 L 670.416 1674.944 L 670.416 1674.944 Q 669.129 1674.635 667.885 1674.635 L 667.885 1674.635 L 667.885 1674.635 Q 666.405 1674.635 665.615 1675.302 L 665.615 1675.302 L 665.615 1675.302 Q 664.825 1675.97 664.825 1677.045 L 664.825 1677.045 L 664.825 1677.045 Q 664.825 1677.712 665.144 1678.209 L 665.144 1678.209 L 665.144 1678.209 Q 665.464 1678.706 666.161 1679.17 L 666.161 1679.17 L 666.161 1679.17 Q 666.859 1679.634 669.466 1680.839 L 669.466 1680.839 L 669.466 1680.839 Q 672.913 1682.435 674.191 1684.039 L 674.191 1684.039 L 674.191 1684.039 Q 675.469 1685.643 675.469 1687.971 Z  M 695.041 1694.583 L 691.46 1694.583 L 690.468 1692.108 L 690.333 1692.108 L 690.333 1692.108 Q 689.038 1693.687 687.668 1694.298 L 687.668 1694.298 L 687.668 1694.298 Q 686.297 1694.909 684.095 1694.909 L 684.095 1694.909 L 684.095 1694.909 Q 681.387 1694.909 679.832 1693.41 L 679.832 1693.41 L 679.832 1693.41 Q 678.277 1691.912 678.277 1689.144 L 678.277 1689.144 L 678.277 1689.144 Q 678.277 1686.245 680.37 1684.869 L 680.37 1684.869 L 680.37 1684.869 Q 682.464 1683.493 686.684 1683.347 L 686.684 1683.347 L 689.946 1683.249 L 689.946 1682.451 L 689.946 1682.451 Q 689.946 1679.683 687.02 1679.683 L 687.02 1679.683 L 687.02 1679.683 Q 684.767 1679.683 681.724 1681.002 L 681.724 1681.002 L 680.025 1677.647 L 680.025 1677.647 Q 683.271 1676.003 687.222 1676.003 L 687.222 1676.003 L 687.222 1676.003 Q 691.006 1676.003 693.023 1677.598 L 693.023 1677.598 L 693.023 1677.598 Q 695.041 1679.194 695.041 1682.451 L 695.041 1682.451 L 695.041 1694.583 Z  M 689.946 1687.646 L 689.946 1686.148 L 687.962 1686.213 L 687.962 1686.213 Q 685.726 1686.278 684.633 1686.994 L 684.633 1686.994 L 684.633 1686.994 Q 683.54 1687.711 683.54 1689.177 L 683.54 1689.177 L 683.54 1689.177 Q 683.54 1691.277 686.028 1691.277 L 686.028 1691.277 L 686.028 1691.277 Q 687.811 1691.277 688.879 1690.284 L 688.879 1690.284 L 688.879 1690.284 Q 689.946 1689.29 689.946 1687.646 L 689.946 1687.646 Z  M 710.057 1694.583 L 704.794 1694.583 L 697.631 1676.377 L 702.995 1676.377 L 706.627 1686.75 L 706.627 1686.75 Q 707.232 1688.721 707.384 1690.479 L 707.384 1690.479 L 707.484 1690.479 L 707.484 1690.479 Q 707.568 1688.916 708.241 1686.75 L 708.241 1686.75 L 711.856 1676.377 L 717.22 1676.377 L 710.057 1694.583 Z  M 727.696 1679.569 L 727.696 1679.569 L 727.696 1679.569 Q 726.065 1679.569 725.14 1680.57 L 725.14 1680.57 L 725.14 1680.57 Q 724.215 1681.572 724.081 1683.412 L 724.081 1683.412 L 731.278 1683.412 L 731.278 1683.412 Q 731.244 1681.572 730.286 1680.57 L 730.286 1680.57 L 730.286 1680.57 Q 729.327 1679.569 727.696 1679.569 Z  M 728.419 1694.909 L 728.419 1694.909 L 728.419 1694.909 Q 723.879 1694.909 721.323 1692.482 L 721.323 1692.482 L 721.323 1692.482 Q 718.767 1690.056 718.767 1685.61 L 718.767 1685.61 L 718.767 1685.61 Q 718.767 1681.034 721.13 1678.535 L 721.13 1678.535 L 721.13 1678.535 Q 723.492 1676.035 727.662 1676.035 L 727.662 1676.035 L 727.662 1676.035 Q 731.648 1676.035 733.867 1678.234 L 733.867 1678.234 L 733.867 1678.234 Q 736.087 1680.432 736.087 1684.308 L 736.087 1684.308 L 736.087 1686.718 L 723.963 1686.718 L 723.963 1686.718 Q 724.047 1688.835 725.258 1690.023 L 725.258 1690.023 L 725.258 1690.023 Q 726.469 1691.212 728.655 1691.212 L 728.655 1691.212 L 728.655 1691.212 Q 730.353 1691.212 731.866 1690.87 L 731.866 1690.87 L 731.866 1690.87 Q 733.38 1690.528 735.027 1689.779 L 735.027 1689.779 L 735.027 1693.622 L 735.027 1693.622 Q 733.682 1694.273 732.152 1694.591 L 732.152 1694.591 L 732.152 1694.591 Q 730.622 1694.909 728.419 1694.909 Z " fill="rgb(255,255,255)"/><g><g><g><path d=" M 689.323 1380.443 L 700.648 1355.531 L 710.188 1355.531 L 710.188 1356.554 L 709.045 1356.554 C 707.512 1356.554 706.518 1356.675 706.04 1356.918 C 705.563 1357.168 705.25 1357.622 705.085 1358.289 C 704.929 1358.949 704.851 1360.533 704.851 1363.041 L 704.851 1377.806 C 704.851 1380.17 704.905 1381.724 705.031 1382.459 C 705.156 1383.187 705.461 1383.732 705.962 1384.089 C 706.455 1384.445 707.41 1384.619 708.811 1384.619 L 710.188 1384.619 L 710.188 1385.642 L 695.334 1385.642 L 695.334 1384.619 L 696.43 1384.619 C 697.744 1384.619 698.66 1384.46 699.177 1384.134 C 699.685 1383.808 700.014 1383.3 700.155 1382.611 C 700.304 1381.921 700.374 1380.322 700.374 1377.806 L 700.374 1358.638 L 688.063 1385.642 L 686.983 1385.642 L 674.579 1358.638 L 674.579 1376.275 C 674.579 1378.685 674.657 1380.329 674.814 1381.201 C 674.962 1382.073 675.44 1382.838 676.23 1383.497 C 677.028 1384.157 678.148 1384.528 679.58 1384.619 L 679.58 1385.642 L 668.459 1385.642 L 668.459 1384.619 C 669.789 1384.543 670.869 1384.195 671.707 1383.566 C 672.536 1382.937 673.045 1382.164 673.233 1381.246 C 673.413 1380.329 673.507 1378.624 673.507 1376.138 L 673.507 1363.041 C 673.507 1360.639 673.428 1359.093 673.288 1358.395 C 673.139 1357.698 672.834 1357.221 672.372 1356.955 C 671.902 1356.69 670.885 1356.554 669.312 1356.554 L 668.459 1356.554 L 668.459 1355.531 L 677.929 1355.531 L 689.323 1380.443 Z  M 712.826 1376.517 C 712.826 1373.736 713.788 1371.409 715.713 1369.529 C 717.639 1367.657 720.01 1366.725 722.82 1366.725 C 725.645 1366.725 728.024 1367.665 729.949 1369.544 C 731.875 1371.424 732.837 1373.751 732.837 1376.517 C 732.837 1379.579 731.859 1381.989 729.902 1383.74 C 727.946 1385.498 725.59 1386.378 722.82 1386.378 C 720.057 1386.378 717.693 1385.483 715.745 1383.702 C 713.796 1381.913 712.826 1379.518 712.826 1376.517 Z  M 716.629 1376.623 C 716.629 1379.852 717.169 1382.118 718.257 1383.414 C 719.345 1384.703 720.863 1385.354 722.82 1385.354 C 724.823 1385.354 726.357 1384.703 727.414 1383.414 C 728.478 1382.118 729.01 1379.852 729.01 1376.623 C 729.01 1373.432 728.486 1371.151 727.429 1369.787 C 726.373 1368.423 724.839 1367.748 722.82 1367.748 C 720.816 1367.748 719.282 1368.423 718.226 1369.779 C 717.161 1371.128 716.629 1373.417 716.629 1376.623 Z  M 757.098 1386.355 L 756.065 1386.355 L 750.47 1371.917 L 744.764 1386.355 L 743.755 1386.355 L 738.018 1371.917 C 737.361 1370.279 736.875 1369.294 736.555 1368.968 C 736.234 1368.642 735.592 1368.476 734.629 1368.476 L 734.629 1367.46 L 743.199 1367.46 L 743.199 1368.476 C 742.236 1368.476 741.587 1368.567 741.235 1368.733 C 740.882 1368.9 740.702 1369.196 740.702 1369.613 C 740.702 1369.908 741 1370.772 741.595 1372.212 L 745.406 1381.959 L 751.229 1367.46 L 752.121 1367.46 L 757.764 1381.959 L 761.888 1371.629 C 762.334 1370.537 762.553 1369.878 762.553 1369.658 C 762.553 1368.93 761.786 1368.536 760.237 1368.476 L 760.237 1367.46 L 766.341 1367.46 L 766.341 1368.476 C 765.605 1368.491 765.026 1368.627 764.604 1368.892 C 764.189 1369.15 763.798 1369.726 763.445 1370.636 L 762.945 1371.917 L 757.098 1386.355 Z  M 782.455 1369.052 C 783.754 1367.634 785.069 1366.922 786.4 1366.922 C 787.128 1366.922 787.699 1367.119 788.106 1367.498 C 788.513 1367.884 788.708 1368.309 788.708 1368.764 C 788.708 1369.741 788.255 1370.234 787.339 1370.234 C 786.83 1370.234 786.4 1369.931 786.032 1369.325 C 785.695 1368.756 785.343 1368.476 784.975 1368.476 C 784.396 1368.476 783.754 1368.862 783.05 1369.635 C 783.841 1370.848 784.24 1372.136 784.24 1373.493 C 784.24 1375.274 783.582 1376.843 782.267 1378.207 C 780.953 1379.579 778.738 1380.322 775.623 1380.42 C 772.383 1380.526 770.763 1381.163 770.763 1382.33 C 770.763 1382.884 771.123 1383.27 771.859 1383.49 C 772.579 1383.725 774.089 1383.907 776.398 1384.02 C 778.926 1384.142 780.867 1384.369 782.221 1384.695 C 783.582 1385.028 784.67 1385.703 785.476 1386.711 C 786.29 1387.711 786.697 1388.917 786.697 1390.303 C 786.697 1392.259 785.868 1393.835 784.216 1395.033 C 782.565 1396.23 780.194 1396.837 777.087 1396.837 C 774.246 1396.837 771.968 1396.299 770.254 1395.237 C 768.54 1394.169 767.687 1392.82 767.687 1391.19 C 767.687 1390.288 767.93 1389.553 768.423 1388.97 C 768.908 1388.394 769.605 1388.106 770.505 1388.106 C 770.755 1388.106 770.974 1388.143 771.17 1388.219 C 770.223 1389.227 769.753 1390.288 769.753 1391.418 C 769.753 1392.721 770.379 1393.797 771.639 1394.646 C 772.899 1395.495 774.786 1395.92 777.29 1395.92 C 779.528 1395.92 781.266 1395.488 782.51 1394.624 C 783.754 1393.76 784.381 1392.653 784.381 1391.304 C 784.381 1389.826 783.817 1388.78 782.706 1388.174 C 781.587 1387.583 779.599 1387.226 776.742 1387.105 C 773.455 1386.976 771.326 1386.582 770.348 1385.93 C 769.37 1385.294 768.877 1384.475 768.877 1383.467 C 768.877 1381.527 770.278 1380.307 773.072 1379.799 C 771.624 1378.973 770.528 1378.025 769.8 1376.957 C 769.065 1375.896 768.697 1374.706 768.697 1373.387 C 768.697 1371.538 769.448 1369.961 770.951 1368.665 C 772.461 1367.369 774.246 1366.725 776.312 1366.725 C 778.863 1366.725 780.906 1367.498 782.455 1369.052 Z  M 772.133 1373.895 C 772.133 1375.805 772.539 1377.207 773.353 1378.094 C 774.16 1378.98 775.193 1379.427 776.445 1379.427 C 777.611 1379.427 778.605 1378.988 779.434 1378.101 C 780.272 1377.222 780.687 1375.691 780.687 1373.516 C 780.687 1371.325 780.24 1369.817 779.356 1368.991 C 778.472 1368.157 777.47 1367.748 776.351 1367.748 C 774.95 1367.748 773.893 1368.256 773.189 1369.279 C 772.485 1370.302 772.133 1371.841 772.133 1373.895 Z  M 795.572 1355.114 L 795.572 1379.405 C 795.572 1381.345 795.595 1382.565 795.65 1383.065 C 795.705 1383.573 795.924 1383.952 796.308 1384.217 C 796.691 1384.49 797.364 1384.619 798.342 1384.619 L 798.898 1384.619 L 798.898 1385.642 L 788.857 1385.642 L 788.857 1384.619 L 789.499 1384.619 C 790.415 1384.619 791.064 1384.498 791.455 1384.255 C 791.847 1384.013 792.082 1383.664 792.152 1383.225 C 792.23 1382.777 792.269 1381.504 792.269 1379.405 L 792.269 1361.42 C 792.269 1359.51 792.097 1358.304 791.745 1357.812 C 791.393 1357.312 790.532 1357.062 789.178 1357.062 L 789.178 1356.046 C 790.109 1356.046 791.205 1355.94 792.465 1355.735 C 793.725 1355.523 794.594 1355.318 795.063 1355.114 L 795.572 1355.114 Z  M 802.764 1357.44 C 802.764 1356.804 802.999 1356.258 803.469 1355.796 C 803.93 1355.341 804.494 1355.114 805.151 1355.114 C 805.809 1355.114 806.364 1355.341 806.826 1355.796 C 807.288 1356.258 807.515 1356.804 807.515 1357.44 C 807.515 1358.092 807.288 1358.646 806.826 1359.108 C 806.364 1359.57 805.809 1359.798 805.151 1359.798 C 804.494 1359.798 803.93 1359.57 803.469 1359.108 C 802.999 1358.646 802.764 1358.092 802.764 1357.44 Z  M 807.194 1366.725 L 807.194 1379.405 C 807.194 1381.345 807.225 1382.565 807.288 1383.065 C 807.343 1383.573 807.57 1383.952 807.953 1384.217 C 808.329 1384.49 809.01 1384.619 809.988 1384.619 L 810.473 1384.619 L 810.473 1385.642 L 800.362 1385.642 L 800.362 1384.619 L 801.136 1384.619 C 802.224 1384.619 802.929 1384.468 803.257 1384.164 C 803.586 1383.861 803.782 1383.497 803.836 1383.081 C 803.883 1382.656 803.915 1381.428 803.915 1379.405 L 803.915 1373.895 C 803.915 1371.765 803.813 1370.461 803.602 1369.991 C 803.398 1369.514 803.124 1369.218 802.78 1369.097 C 802.436 1368.983 801.833 1368.923 800.98 1368.923 L 800.362 1368.923 L 800.362 1367.9 C 803.077 1367.634 805.19 1367.24 806.685 1366.725 L 807.194 1366.725 Z " fill="rgb(255,255,255)"/><path d=" M 828.794 1374.251 L 819.896 1374.251 L 817.055 1378.473 C 816.116 1379.859 815.552 1380.754 815.357 1381.133 C 815.153 1381.519 815.059 1381.921 815.059 1382.33 C 815.059 1383.785 816.147 1384.536 818.338 1384.596 L 819.09 1384.619 L 818.769 1385.642 L 807.883 1385.642 L 808.203 1384.619 C 809.698 1384.505 810.943 1384.028 811.937 1383.187 C 812.931 1382.353 814.355 1380.587 816.202 1377.896 L 832.026 1355 L 833.631 1355 L 832.551 1379.405 L 832.418 1382.11 C 832.418 1383.088 832.707 1383.74 833.294 1384.066 C 833.881 1384.392 834.844 1384.574 836.174 1384.619 L 835.853 1385.642 L 823.652 1385.642 L 823.973 1384.619 C 825.593 1384.589 826.697 1384.369 827.268 1383.945 C 827.839 1383.52 828.176 1383.02 828.286 1382.436 C 828.395 1381.853 828.489 1380.739 828.559 1379.117 L 828.794 1374.251 Z  M 828.833 1373.228 L 829.436 1360.374 L 820.585 1373.228 L 828.833 1373.228 Z  M 846.356 1357.046 C 846.356 1356.508 846.552 1356.053 846.943 1355.675 C 847.335 1355.303 847.804 1355.114 848.352 1355.114 C 848.9 1355.114 849.369 1355.303 849.761 1355.675 C 850.152 1356.053 850.348 1356.508 850.348 1357.046 C 850.348 1357.577 850.152 1358.032 849.761 1358.418 C 849.369 1358.805 848.9 1358.994 848.352 1358.994 C 847.788 1358.994 847.311 1358.797 846.928 1358.411 C 846.552 1358.016 846.356 1357.562 846.356 1357.046 Z  M 848.055 1380.777 L 849.158 1380.777 C 848.438 1382.217 847.499 1383.49 846.348 1384.596 C 845.19 1385.711 844.079 1386.264 843.007 1386.264 C 842.294 1386.264 841.661 1386.014 841.121 1385.521 C 840.573 1385.021 840.307 1384.293 840.307 1383.331 C 840.307 1382.55 840.729 1381.049 841.59 1378.829 L 844.228 1372.053 C 844.838 1370.469 845.143 1369.506 845.143 1369.165 C 845.143 1368.87 845.073 1368.65 844.924 1368.498 C 844.783 1368.354 844.564 1368.279 844.274 1368.279 C 843.672 1368.279 842.968 1368.726 842.154 1369.62 C 841.332 1370.514 840.753 1371.325 840.416 1372.053 L 839.32 1372.053 C 840.158 1370.439 841.121 1369.165 842.193 1368.233 C 843.273 1367.301 844.282 1366.839 845.214 1366.839 C 845.934 1366.839 846.521 1367.074 846.975 1367.543 C 847.436 1368.021 847.663 1368.642 847.663 1369.408 C 847.663 1370.196 847.256 1371.629 846.45 1373.72 L 844.251 1379.488 C 843.437 1381.58 843.03 1382.891 843.03 1383.422 C 843.03 1383.854 843.124 1384.172 843.296 1384.384 C 843.476 1384.604 843.727 1384.71 844.063 1384.71 C 845.198 1384.71 846.528 1383.399 848.055 1380.777 Z  M 867.103 1381.603 L 868.23 1381.603 C 867.542 1382.815 866.673 1383.899 865.624 1384.847 C 864.576 1385.794 863.621 1386.264 862.744 1386.264 C 861.938 1386.264 861.328 1386.029 860.913 1385.551 C 860.498 1385.081 860.295 1384.377 860.295 1383.444 C 860.295 1383.012 860.334 1382.626 860.412 1382.27 C 858.236 1384.93 856.225 1386.264 854.378 1386.264 C 853.337 1386.264 852.453 1385.855 851.717 1385.044 C 850.989 1384.225 850.622 1383.05 850.622 1381.512 C 850.622 1379.367 851.232 1377.063 852.453 1374.592 C 853.674 1372.129 855.192 1370.219 856.992 1368.87 C 858.8 1367.513 860.365 1366.839 861.696 1366.839 C 862.384 1366.839 862.963 1366.99 863.449 1367.301 C 863.926 1367.612 864.317 1368.082 864.607 1368.703 L 867.401 1359.752 C 867.737 1358.683 867.91 1358.039 867.91 1357.819 C 867.91 1357.463 867.8 1357.213 867.597 1357.069 C 867.393 1356.918 866.884 1356.842 866.07 1356.842 L 865.429 1356.842 L 865.726 1355.909 C 867.949 1355.909 869.71 1355.644 871.024 1355.114 L 871.596 1355.114 L 864.263 1378.495 C 863.363 1381.375 862.909 1383.081 862.909 1383.596 C 862.909 1383.967 862.979 1384.248 863.128 1384.43 C 863.269 1384.619 863.48 1384.71 863.754 1384.71 C 864.216 1384.71 864.724 1384.452 865.28 1383.929 C 865.836 1383.414 866.446 1382.633 867.103 1381.603 Z  M 853.259 1382.535 C 853.259 1383.361 853.408 1383.99 853.705 1384.407 C 854.002 1384.831 854.441 1385.044 855.02 1385.044 C 856.045 1385.044 857.227 1384.354 858.573 1382.967 C 859.919 1381.58 861.156 1379.306 862.29 1376.131 C 863.417 1372.955 863.989 1370.946 863.989 1370.098 C 863.989 1369.552 863.793 1369.059 863.41 1368.612 C 863.034 1368.165 862.525 1367.945 861.899 1367.945 C 860.905 1367.945 859.864 1368.514 858.769 1369.643 C 857.673 1370.78 856.483 1372.735 855.192 1375.532 C 853.901 1378.321 853.259 1380.655 853.259 1382.535 Z " fill="rgb(255,255,255)"/></g></g></g></g></svg>